<?xml version="1.0" standalone="no"?>
<!DOCTYPE svg PUBLIC "-//W3C//DTD SVG 20010904//EN"
 "http://www.w3.org/TR/2001/REC-SVG-20010904/DTD/svg10.dtd">
<svg version="1.0" xmlns="http://www.w3.org/2000/svg"
 width="860.000000pt" height="800.000000pt" viewBox="0 0 860.000000 800.000000"
 preserveAspectRatio="xMidYMid meet">

<g transform="translate(0.000000,800.000000) scale(0.100000,-0.100000)"
fill="#000000" stroke="none">
<path d="M4325 6653 c-245 -29 -447 -99 -600 -208 -87 -61 -222 -208 -277
-301 -86 -143 -149 -325 -190 -544 -77 -414 51 -817 376 -1180 56 -63 82 -98
75 -105 -6 -6 -89 -10 -212 -9 -238 1 -301 14 -462 93 -163 80 -282 205 -371
386 -74 152 -87 220 -88 435 0 207 14 306 64 442 75 205 205 373 408 526 163
123 286 180 410 189 71 6 72 6 72 34 0 28 -2 29 -48 29 -166 0 -396 -127 -615
-339 -258 -250 -370 -551 -354 -945 6 -160 31 -265 92 -394 165 -348 459 -522
882 -522 126 0 204 7 273 25 21 5 42 -6 115 -62 50 -37 187 -129 306 -204 469
-296 532 -342 680 -489 298 -297 429 -594 429 -974 0 -543 -202 -909 -577
-1046 -130 -47 -239 -64 -408 -64 -172 0 -249 16 -388 82 -292 138 -463 427
-521 884 -15 116 -15 134 -1 230 94 599 335 928 680 928 134 0 243 -48 351
-155 104 -104 180 -245 240 -450 35 -118 34 -120 -32 -80 -225 136 -521 102
-699 -79 -99 -101 -146 -223 -126 -330 35 -192 206 -308 431 -293 132 9 230
48 313 126 84 77 139 177 177 321 10 36 21 65 26 64 5 0 28 -38 52 -85 73
-145 77 -296 10 -442 l-31 -68 20 -21 21 -21 31 44 c46 62 65 137 65 254 1
153 -37 272 -122 385 -23 30 -45 70 -48 90 -17 105 -39 202 -61 269 -73 225
-204 391 -378 479 -180 90 -440 116 -636 63 -378 -102 -615 -358 -705 -761
-41 -184 -48 -291 -29 -405 35 -203 114 -417 209 -565 61 -94 199 -236 292
-300 357 -247 917 -308 1408 -153 305 96 554 303 691 572 114 226 185 561 172
811 -12 217 -45 346 -134 524 -112 224 -218 357 -406 507 -123 100 -570 397
-772 514 -82 48 -160 93 -172 101 -21 13 -19 16 66 99 l88 86 51 -35 c111 -74
205 -94 368 -77 383 41 626 186 763 458 112 222 138 491 76 766 -88 393 -291
645 -629 783 -202 82 -506 130 -691 107z m362 -98 c278 -71 464 -264 554 -575
50 -170 74 -476 50 -630 -41 -268 -144 -481 -283 -588 -116 -88 -242 -132
-379 -132 -87 0 -147 19 -183 59 -16 17 -14 21 20 72 168 250 250 636 175 830
-55 143 -137 201 -245 174 -91 -23 -173 -133 -217 -290 -26 -95 -32 -311 -10
-410 21 -95 68 -208 122 -290 27 -42 49 -79 49 -83 0 -13 -155 -162 -169 -162
-21 0 -149 100 -212 167 -211 222 -332 528 -332 838 0 225 35 388 118 560 61
126 121 205 219 287 83 70 239 149 361 183 77 21 103 24 180 19 49 -3 131 -16
182 -29z m-163 -879 c145 -146 97 -565 -101 -875 l-35 -54 -24 29 c-40 49
-113 205 -130 279 -24 106 -15 367 16 453 46 130 117 202 196 202 36 0 49 -6
78 -34z m-11 -2819 c37 -15 92 -43 122 -63 50 -33 55 -39 55 -72 -1 -113 -73
-283 -156 -369 -127 -130 -338 -168 -506 -91 -107 49 -157 127 -158 244 0 91
31 156 114 240 64 64 142 108 229 130 81 21 218 12 300 -19z"/>
</g>
</svg>
